<svg xmlns="http://www.w3.org/2000/svg" viewBox="0 0 333.8 128.8"><defs><style>.a{fill:#231f20}</style></defs><title>logo</title><path class="a" d="M72.5 2.2L71 3.3l-.6.7-1 1.4a19.5 19.5 0 0 0-1.2 2.3q-.6 1.4-1.4 3.5L64.1 19 61 27.8l-3.1 9.1-3 8.7-3 6.9h-.7l-3.6-9.9-3.2-9.1-3-8.5q-1.4-4.1-3-8.2L36 23.7l-2.6 7.4-2.6 7.4-2.5 7-3.2 7.1h-.9L20 41.5l-3.8-10.2-3.6-9.4-3.5-9.1-.9-2.4-.7-1.9-.7-1.7L6 5.1 5.4 4a5.4 5.4 0 0 0-1.1-1.3 7.6 7.6 0 0 0-1.7-1.1A6.9 6.9 0 0 0 0 1.1V.3h20.3V1h-1.2l-1.8.5a4.4 4.4 0 0 0-1.6 1.1 2.7 2.7 0 0 0-.7 1.9 13.7 13.7 0 0 0 .8 3q.8 2.3 2 5.7l2.7 7.3 3 7.8 2.7 7.6 2.1 5.5 1.1-3 2.2-6 2.9-8.2q1.6-4.6 3.2-9.5l-1.9-5.1q-.9-2.2-1.9-4.3l-.8-1.2a5.9 5.9 0 0 0-1.3-1.3 7.1 7.1 0 0 0-2.1-1 11.2 11.2 0 0 0-3-.5V.5h22.5v.7l-1.5.2-2.2.5a6.9 6.9 0 0 0-2 1.1 2.2 2.2 0 0 0-.9 1.8 17.5 17.5 0 0 0 .8 2.9l2 6 2.7 7.7 2.9 8 2.5 6.9 1.6 4.4.8-2.1 1.4-4 1.8-5.2 1.9-5.9 1.9-6 1.8-5.6a28.2 28.2 0 0 0 1.2-4.8q.1-1.5.1-2.2a2.5 2.5 0 0 0-.6-1.8 5.6 5.6 0 0 0-1.6-1.2l-2-.7-1.9-.3V.2h15.8v.7a7.3 7.3 0 0 0-3.2 1.3zM101.2 47.9a8.9 8.9 0 0 1-1.5 2.3 6.2 6.2 0 0 1-2.2 1.6 7.3 7.3 0 0 1-7.1-.9q-1.9-1.4-1.9-5h-.1a17.7 17.7 0 0 1-1.5 2.1 14.2 14.2 0 0 1-2.3 2.2 11.7 11.7 0 0 1-3 1.6 10 10 0 0 1-3.6.6 8.9 8.9 0 0 1-2.3-.3 5.5 5.5 0 0 1-2.2-1.2 6.2 6.2 0 0 1-1.6-2.1 7.4 7.4 0 0 1-.6-3.2 5.9 5.9 0 0 1 1.6-3.9 18 18 0 0 1 4-3.4l4.2-2.6 3.2-1.8 2.4-1.3 1.8-1v-7.4l-.3-.7a3.8 3.8 0 0 0-.9-1.1 5.9 5.9 0 0 0-1.7-1 7.1 7.1 0 0 0-2.8-.5 6.8 6.8 0 0 0-2.3.4 8.1 8.1 0 0 0-2 1 7 7 0 0 0-1.4 1.2 1.8 1.8 0 0 0-.5 1v3.2a2.3 2.3 0 0 1-1 1.8 3.7 3.7 0 0 1-2.3.8 2.7 2.7 0 0 1-2-.8 2.6 2.6 0 0 1-.8-1.9 3 3 0 0 1 .4-1.6 5.6 5.6 0 0 1 1.1-1.3l1.4-1 1.3-.8 3.8-2.1 3.7-1.7 3.2-1.2a9 9 0 0 1 2.4-.4 6.9 6.9 0 0 1 3.5 1 5.9 5.9 0 0 1 2.4 2.4 4.4 4.4 0 0 1 .4 1.8q.1 1.3.1 2.5t0 4.7v12.5q0 2.4 1.1 4.3a3.6 3.6 0 0 0 2.6 1 3.7 3.7 0 0 0 2.4-.7 3.4 3.4 0 0 0 1.1-1.8h.4a7.5 7.5 0 0 1-.6 2.7zM88.5 32.7l-3.2 2-3.8 2.3a16.8 16.8 0 0 0-3.2 2.7A4.9 4.9 0 0 0 77 43a5.1 5.1 0 0 0 1.3 3.4 4.2 4.2 0 0 0 3.4 1.5 11.5 11.5 0 0 0 3.3-.4 6.3 6.3 0 0 0 2.7-1.7 2.6 2.6 0 0 0 .9-2V32.7zM123.8 52.3v-.8a16.3 16.3 0 0 0 3.1-.5 1.4 1.4 0 0 0 1.2-1.5V31.4a12.7 12.7 0 0 0-1.6-6.7q-1.6-2.6-5.3-2.6a7.2 7.2 0 0 0-4 1 21.6 21.6 0 0 0-3.5 3v23.6a1.9 1.9 0 0 0 .5 1l.9.5 1.2.2 1.4.2v.7h-14v-.7a9.3 9.3 0 0 0 2.8-.6 1.7 1.7 0 0 0 1.2-1.7V24.5a2.6 2.6 0 0 0-.1-.9 1.7 1.7 0 0 0-.6-.6l-1.5-.8-1.7-.8v-.5l9.4-3.4h.4v7.8h.1a25.9 25.9 0 0 1 2-2.6 17 17 0 0 1 2.7-2.6 15 15 0 0 1 3.3-1.9 9.5 9.5 0 0 1 3.7-.8 7.4 7.4 0 0 1 6.4 3.1 13.4 13.4 0 0 1 2.2 8v21.2a1.1 1.1 0 0 0 .5.9l1.1.5 1.4.3 1.4.2v.6h-14.6zM167.9 52.5h-.4v-7.2h-.1a14.6 14.6 0 0 1-4.9 5.3 13.4 13.4 0 0 1-7.1 1.7 13.1 13.1 0 0 1-5.1-1 12.2 12.2 0 0 1-4.4-3.2 16.4 16.4 0 0 1-3.1-5.4 21.7 21.7 0 0 1-1.2-7.4 18.2 18.2 0 0 1 1.3-7 16.9 16.9 0 0 1 9.5-9.4 19.8 19.8 0 0 1 7.5-1.4 22 22 0 0 1 4.1.4l3.5.9q-.1-1.1-.1-3t0-3.8V5.9l-5.9-2.2v-.4L172.9.1h.6v46.7l2.2 1 3 1.2v.5zm-.5-27.1a14 14 0 0 0-4-4.8 7.9 7.9 0 0 0-4.5-1.8 8.5 8.5 0 0 0-4.8 1.3 10.5 10.5 0 0 0-3.3 3.5 16.3 16.3 0 0 0-1.9 5 27 27 0 0 0-.6 5.8 22.6 22.6 0 0 0 .7 5.7 15.6 15.6 0 0 0 2.2 4.9 11.5 11.5 0 0 0 3.6 3.4 9.3 9.3 0 0 0 4.9 1.3 7.1 7.1 0 0 0 5.1-2 9.2 9.2 0 0 0 2.7-5.1V25.5zM210.4 44.9a13.5 13.5 0 0 1-2.7 3.6 14.4 14.4 0 0 1-4.1 2.7 13 13 0 0 1-5.4 1.1 16.1 16.1 0 0 1-6.7-1.4 14.6 14.6 0 0 1-5.1-3.9 17.7 17.7 0 0 1-3.3-5.8 21.6 21.6 0 0 1-1.2-7.1 18.1 18.1 0 0 1 4.1-11.4 15.5 15.5 0 0 1 4.8-3.9 13.5 13.5 0 0 1 6.3-1.5 19 19 0 0 1 5.3.7 12.3 12.3 0 0 1 4.3 2.2 11.4 11.4 0 0 1 3 3.7 13.5 13.5 0 0 1 1.4 5.3H188q0 .6-.1 1.3t-.1 1.5a19.4 19.4 0 0 0 .9 5.8 15.2 15.2 0 0 0 2.5 4.9 11.7 11.7 0 0 0 4.2 3.3 13.2 13.2 0 0 0 5.8 1.2 10.9 10.9 0 0 0 6.3-1.8 8.7 8.7 0 0 0 3.6-4.5h.6a13.3 13.3 0 0 1-1.3 4zm-8.2-24.3a6.5 6.5 0 0 0-4.9-1.9 6 6 0 0 0-3.6 1.2 13.4 13.4 0 0 0-2.8 2.8 14.1 14.1 0 0 0-1.8 3.2 13.2 13.2 0 0 0-.8 2.5h13.2l1.7-.4.8-1.1a3.5 3.5 0 0 0 .3-1.5 6.4 6.4 0 0 0-2.2-4.7zM238.3 24a2.8 2.8 0 0 1-2.2 1 3.6 3.6 0 0 1-1.8-.4l-1.2-.9-1.1-.9a2.8 2.8 0 0 0-1.6-.4 2.8 2.8 0 0 0-1.7.6 7.9 7.9 0 0 0-1.5 1.5 12.2 12.2 0 0 0-1.3 2.1l-1 2.3v20.7a1.7 1.7 0 0 0 .9 1l1.6.5 1.9.2 1.7.2v.7h-16.1v-.7a9.3 9.3 0 0 0 2.8-.6 1.7 1.7 0 0 0 1.2-1.7V24.9a2.6 2.6 0 0 0-.1-.9 1.7 1.7 0 0 0-.6-.6l-1.5-.9-1.7-.9v-.4l9.4-3.7h.4v10h.1l1.2-2.5a21.7 21.7 0 0 1 2-3.3 12.6 12.6 0 0 1 3-2.9 6.7 6.7 0 0 1 4-1.2 4.5 4.5 0 0 1 3.1 1.1 3.4 3.4 0 0 1 1.3 2.7 3.8 3.8 0 0 1-1.2 2.6zM240.8 52.3v-.7l1.7-.2 1.5-.4a3.4 3.4 0 0 0 1.2-.7 1.4 1.4 0 0 0 .5-1.1V24.6a4.2 4.2 0 0 0-.1-1 1.4 1.4 0 0 0-.6-.8l-1.5-.9-1.9-.8v-.4l9.7-3.2h.4v32.2a1.6 1.6 0 0 0 .6 1l1.1.5 1.4.2 1.5.2v.7h-15.5zm10.3-43.4a3.9 3.9 0 0 1-6.7-2.8 3.6 3.6 0 0 1 1.1-2.7 4.1 4.1 0 0 1 5.5 0 3.6 3.6 0 0 1 1.1 2.7 3.8 3.8 0 0 1-1 2.8zM280 52.3v-.8a16.3 16.3 0 0 0 3.1-.5 1.4 1.4 0 0 0 1.2-1.5V31.4a12.7 12.7 0 0 0-1.6-6.7q-1.6-2.6-5.3-2.6a7.2 7.2 0 0 0-4 1 21.6 21.6 0 0 0-3.5 3v23.6a1.9 1.9 0 0 0 .5 1l.9.5 1.2.2 1.4.2v.7h-14.1v-.7a9.3 9.3 0 0 0 2.8-.6 1.7 1.7 0 0 0 1.2-1.7V24.5a2.6 2.6 0 0 0-.1-.9 1.7 1.7 0 0 0-.6-.6l-1.5-.8-1.7-.8v-.5l9.4-3.4h.4v7.8h.1a25.9 25.9 0 0 1 2-2.6 17 17 0 0 1 2.7-2.6 15 15 0 0 1 3.3-1.9 9.5 9.5 0 0 1 3.7-.8 7.4 7.4 0 0 1 6.4 3.1 13.4 13.4 0 0 1 2.2 8v21.2a1.1 1.1 0 0 0 .5.9l1.1.5 1.4.3 1.4.2v.6H280zM333.1 23.4a2.4 2.4 0 0 1-1.8.8l-1.3-.4-1.9-.9-2.1-1.1-1.9-1.1-.3.3q1.1 1.7 1.8 3.1a8 8 0 0 1 .8 3.7q0 5.7-4 8.5t-10.9 2.8H307a7.2 7.2 0 0 0-3.7 1.1 2.8 2.8 0 0 0-1.4 2.4 2.7 2.7 0 0 0 .7 1.9 5 5 0 0 0 1.8 1.2 9.1 9.1 0 0 0 2.4.6h14a12.3 12.3 0 0 1 4.5.8 10.6 10.6 0 0 1 3.5 2.2 9.4 9.4 0 0 1 2.2 3.1 9.9 9.9 0 0 1 .8 3.9 11 11 0 0 1-1.4 5.4 14.5 14.5 0 0 1-3.9 4.5 19.6 19.6 0 0 1-5.9 3.1 24.2 24.2 0 0 1-7.5 1.1q-7.8 0-12.2-2.3t-4.4-6.4a4.8 4.8 0 0 1 .8-2.7 12.4 12.4 0 0 1 2.1-2.3 21.2 21.2 0 0 1 2.8-2.1l3.1-1.9a10.6 10.6 0 0 1-5.7-2.1 5.7 5.7 0 0 1-1.3-7 7.9 7.9 0 0 1 1.8-2.2 10.6 10.6 0 0 1 2.7-1.7 11.7 11.7 0 0 1 3.3-.9v-.2a10.8 10.8 0 0 1-4.9-3.6 9.9 9.9 0 0 1-1.8-6 9.3 9.3 0 0 1 1-4.3 10.7 10.7 0 0 1 2.9-3.5 14.7 14.7 0 0 1 4.4-2.3 17.3 17.3 0 0 1 5.6-.9 21.2 21.2 0 0 1 4.9.5 18.7 18.7 0 0 1 4.4 1.7l1.5.4h1.5l1.5-.3 1.3-.6 1.2-.6 1.5-.3a2.6 2.6 0 0 1 2 .9 3 3 0 0 1 .8 2.1 2.7 2.7 0 0 1-.8 1.6zM326 55.6a4.8 4.8 0 0 0-2.1-2.1 12.7 12.7 0 0 0-4-1.1 51.3 51.3 0 0 0-6.6-.3h-3.1l-2.6.3a7.8 7.8 0 0 0-4.7 2.7 7.1 7.1 0 0 0-1.3 4.1 6.7 6.7 0 0 0 1.3 4 11.4 11.4 0 0 0 3.1 2.9 14.5 14.5 0 0 0 4 1.8 15.1 15.1 0 0 0 3.9.6l3.7-.2 2.8-.6a11.3 11.3 0 0 0 4.4-3.2 7.9 7.9 0 0 0 1.9-5.3 7.1 7.1 0 0 0-.7-3.6zm-6-31.2a9 9 0 0 0-1.5-2.9 7.2 7.2 0 0 0-2.4-2 7.4 7.4 0 0 0-3.4-.8 6.4 6.4 0 0 0-3.2.8 7.4 7.4 0 0 0-2.4 2.2 10.6 10.6 0 0 0-1.5 3.2 13.5 13.5 0 0 0-.5 3.7 10.5 10.5 0 0 0 2.2 6.9 6.7 6.7 0 0 0 5.4 2.6 6.6 6.6 0 0 0 3.4-.9 7.9 7.9 0 0 0 2.5-2.3 10.5 10.5 0 0 0 1.5-3.3 14.5 14.5 0 0 0 .5-3.9 12.1 12.1 0 0 0-.6-3.3zM40.8 104.3a14 14 0 0 1-3.9 4.7 16.5 16.5 0 0 1-5.9 2.9 28.9 28.9 0 0 1-7.6.9 36.4 36.4 0 0 1-6-.4 23.8 23.8 0 0 1-4.2-1l-2.5-1.1-1-.5a2.4 2.4 0 0 0-.9.9l-1.3 1.7h-.6l-.3-14.5h.7a22.8 22.8 0 0 0 1.7 3.8 31.2 31.2 0 0 0 2.2 3.5 19.5 19.5 0 0 0 2.5 2.8 12.4 12.4 0 0 0 2.5 1.9 20.5 20.5 0 0 0 3.2 1.3 13.5 13.5 0 0 0 12.5-2.3 10 10 0 0 0 3.3-7.9 8.9 8.9 0 0 0-.6-3.5 8.3 8.3 0 0 0-1.8-2.6 10.8 10.8 0 0 0-2.6-1.9L27 91.6l-3-1.1-2.4-.8-2.3-.8-2.8-1a15.6 15.6 0 0 1-3.6-2 14.7 14.7 0 0 1-3-3 15 15 0 0 1-2.1-3.7 12 12 0 0 1-.8-4.4 14.7 14.7 0 0 1 1.4-6.7 13.7 13.7 0 0 1 3.8-4.7 16.1 16.1 0 0 1 5.5-2.8 23.8 23.8 0 0 1 6.6-.9 24.6 24.6 0 0 1 5.5.5 22.2 22.2 0 0 1 3.8 1.2l2.2 1.2.8.5a2.3 2.3 0 0 0 .9-.9l1.3-1.7h.8v13.4h-.8a29.1 29.1 0 0 0-2.2-4.7 21.3 21.3 0 0 0-3.2-4.2 15.3 15.3 0 0 0-4.1-3 11.3 11.3 0 0 0-5.1-1.2 13.5 13.5 0 0 0-4.2.6 9.8 9.8 0 0 0-3.5 1.9 8.9 8.9 0 0 0-2.3 3.2 10.8 10.8 0 0 0-.8 4.4 8.3 8.3 0 0 0 2.3 6.1 16.3 16.3 0 0 0 6 3.7l2.7 1 2.5.8 2.5.8 2.6.9a16.7 16.7 0 0 1 7.6 5.2 14.7 14.7 0 0 1 1.2 14.9zM67.8 112.3v-.8a16.3 16.3 0 0 0 3.1-.5 1.4 1.4 0 0 0 1.2-1.5V91.4a12.7 12.7 0 0 0-1.6-6.7q-1.6-2.6-5.3-2.6a7.2 7.2 0 0 0-4 1 21.6 21.6 0 0 0-3.5 3v23.6a1.9 1.9 0 0 0 .5 1l.9.5 1.2.2 1.4.2v.7H47.6v-.7a9.3 9.3 0 0 0 2.8-.6 1.7 1.7 0 0 0 1.2-1.7V84.5a2.6 2.6 0 0 0-.1-.9 1.7 1.7 0 0 0-.6-.6l-1.5-.8-1.7-.8v-.5l9.4-3.4h.4v7.8h.1a25.9 25.9 0 0 1 2-2.6 17 17 0 0 1 2.7-2.6 15 15 0 0 1 3.3-1.9 9.5 9.5 0 0 1 3.7-.8 7.4 7.4 0 0 1 6.4 3.1 13.4 13.4 0 0 1 2.2 8v21.2a1.1 1.1 0 0 0 .5.9l1.1.5 1.4.3 1.4.2v.6H67.8zM84.4 112.3v-.7l1.7-.2 1.5-.4a3.4 3.4 0 0 0 1.2-.7 1.4 1.4 0 0 0 .5-1.1V84.6a4.2 4.2 0 0 0-.1-1 1.4 1.4 0 0 0-.6-.8l-1.5-.9-1.9-.8v-.4l9.7-3.2h.4v32.2a1.6 1.6 0 0 0 .6 1l1.1.5 1.4.2 1.5.2v.7H84.4zm10.4-43.4a3.9 3.9 0 0 1-6.7-2.8 3.6 3.6 0 0 1 1.1-2.7 4.1 4.1 0 0 1 5.5 0 3.6 3.6 0 0 1 1.1 2.7 3.8 3.8 0 0 1-1 2.8zM137 100.7a17 17 0 0 1-4 5.9 18.3 18.3 0 0 1-6.3 3.9 23.7 23.7 0 0 1-8.4 1.4h-2.5l-2.6-.4V126.2a1.4 1.4 0 0 0 .8 1l1.5.5 1.9.3h1.8v.9h-17.8v-.8l1.7-.3 1.9-.5 1.5-.7a1.2 1.2 0 0 0 .6-1V85.7a2.6 2.6 0 0 0-.1-.9 1.7 1.7 0 0 0-.6-.6l-2.1-1-2.3-1v-.4l10.7-4.2h.5v8.1l2.2-2.8a18.9 18.9 0 0 1 2.7-2.6 15.6 15.6 0 0 1 3.3-2 9.2 9.2 0 0 1 3.8-.8 11.9 11.9 0 0 1 5.9 1.4 12.4 12.4 0 0 1 4.1 3.6 15.8 15.8 0 0 1 2.4 5 20.9 20.9 0 0 1 .8 5.7 19.7 19.7 0 0 1-1.4 7.5zm-5.7-10.5a12.1 12.1 0 0 0-2-4.1 9.6 9.6 0 0 0-3.4-2.8 10.4 10.4 0 0 0-4.8-1 7.8 7.8 0 0 0-3.3.7 10.8 10.8 0 0 0-2.5 1.6 7.3 7.3 0 0 0-1.6 1.8 3.3 3.3 0 0 0-.5 1.4v10.5q0 1.7.1 3.3a25.9 25.9 0 0 0 .5 3.1 8.9 8.9 0 0 0 1.2 3 6.4 6.4 0 0 0 2.4 2.2 8 8 0 0 0 3.9.8 7.8 7.8 0 0 0 4-1.2 11.9 11.9 0 0 0 3.4-3.2 16.3 16.3 0 0 0 2.4-4.8 20 20 0 0 0 .9-6.1 19.5 19.5 0 0 0-.7-5.2zM175.5 100.7a17 17 0 0 1-4 5.9 18.3 18.3 0 0 1-6.3 3.9 23.7 23.7 0 0 1-8.4 1.4h-2.6l-2.6-.4V126.2a1.4 1.4 0 0 0 .8 1l1.5.5 1.9.3h1.7v.9h-17.6v-.8l1.7-.3 1.9-.5 1.5-.7a1.2 1.2 0 0 0 .6-1V85.7a2.6 2.6 0 0 0-.1-.9 1.7 1.7 0 0 0-.6-.6l-2.1-1-2.3-1v-.4l10.7-4.2h.4v8.1h.1l2.2-2.8a18.9 18.9 0 0 1 2.7-2.6 15.6 15.6 0 0 1 3.3-2 9.2 9.2 0 0 1 3.8-.8 11.9 11.9 0 0 1 5.9 1.4 12.4 12.4 0 0 1 4.1 3.6 15.8 15.8 0 0 1 2.4 5 20.9 20.9 0 0 1 .8 5.7 19.7 19.7 0 0 1-1.4 7.5zm-5.7-10.5a12.1 12.1 0 0 0-2-4.1 9.6 9.6 0 0 0-3.4-2.8 10.4 10.4 0 0 0-4.8-1 7.8 7.8 0 0 0-3.3.7 10.8 10.8 0 0 0-2.5 1.6 7.3 7.3 0 0 0-1.6 1.8 3.3 3.3 0 0 0-.5 1.4v10.5q0 1.7.1 3.3a25.9 25.9 0 0 0 .5 3.1 8.9 8.9 0 0 0 1.2 3 6.4 6.4 0 0 0 2.4 2.2 8 8 0 0 0 3.9.8 7.8 7.8 0 0 0 4-1.2 11.9 11.9 0 0 0 3.4-3.2 16.3 16.3 0 0 0 2.4-4.8 20 20 0 0 0 .9-6.1 19.5 19.5 0 0 0-.7-5.2zM208.2 104.9a13.5 13.5 0 0 1-2.7 3.6 14.4 14.4 0 0 1-4.1 2.7 13 13 0 0 1-5.4 1.1 16.1 16.1 0 0 1-6.7-1.4 14.6 14.6 0 0 1-5.1-3.9 17.7 17.7 0 0 1-3.3-5.8 21.6 21.6 0 0 1-1.2-7.1 18.1 18.1 0 0 1 4.1-11.4 15.5 15.5 0 0 1 4.8-3.9 13.5 13.5 0 0 1 6.3-1.5 19 19 0 0 1 5.3.7 12.3 12.3 0 0 1 4.3 2.2 11.4 11.4 0 0 1 3 3.7 13.5 13.5 0 0 1 1.4 5.3h-23.1q0 .6-.1 1.3t-.1 1.5a19.4 19.4 0 0 0 .9 5.8 15.2 15.2 0 0 0 2.5 4.9 11.7 11.7 0 0 0 4.2 3.3 13.2 13.2 0 0 0 5.8 1.2 10.9 10.9 0 0 0 6.3-1.8 8.7 8.7 0 0 0 3.6-4.5h.6a13.3 13.3 0 0 1-1.3 4zM200 80.6a6.5 6.5 0 0 0-4.9-1.9 6 6 0 0 0-3.6 1.2 13.4 13.4 0 0 0-2.8 2.8 14.1 14.1 0 0 0-1.8 3.2 13.2 13.2 0 0 0-.8 2.5h13.2l1.7-.4.8-1.1a3.5 3.5 0 0 0 .3-1.5 6.4 6.4 0 0 0-2.1-4.7zM232.6 82.6h-10.9v18.9q0 3.7 1.6 5.3a5.4 5.4 0 0 0 4.1 1.7 7.7 7.7 0 0 0 3.5-.7 6.4 6.4 0 0 0 2.4-2.1l.4.2a13.9 13.9 0 0 1-1.2 2.3 8.5 8.5 0 0 1-2 2.2 9.5 9.5 0 0 1-3 1.5 13.2 13.2 0 0 1-4 .5 9 9 0 0 1-2.9-.5 7.4 7.4 0 0 1-2.5-1.4 8.2 8.2 0 0 1-1.7-2 4.3 4.3 0 0 1-.7-2.3q0-6.8.1-12.9t.1-10.8h-5.3v-.6L221 72h.6v6.3h13.3zM258.4 106.7a9.6 9.6 0 0 1-3 3.3 12.6 12.6 0 0 1-4.3 1.9 21.8 21.8 0 0 1-5.1.6 29.6 29.6 0 0 1-6-.6 24.3 24.3 0 0 1-5.2-1.7v-9.5h.6a37.9 37.9 0 0 0 1.4 3.6 18.5 18.5 0 0 0 2.1 3.5 10.4 10.4 0 0 0 2.9 2.7 7.7 7.7 0 0 0 4.1 1 7.5 7.5 0 0 0 5.5-2q2-2 2-6.1a5.2 5.2 0 0 0-1.4-3.7 7.1 7.1 0 0 0-3.8-2l-3.7-.8-3.2-.9a8.9 8.9 0 0 1-4.4-3.2 9.1 9.1 0 0 1-1.7-5.5 8.6 8.6 0 0 1 .9-4 9.8 9.8 0 0 1 2.5-3.1 11.3 11.3 0 0 1 3.7-2 14.2 14.2 0 0 1 4.5-.7 23.5 23.5 0 0 1 5.3.5 34.8 34.8 0 0 1 4.4 1.3l.9 8.9h-.6q-1-2.2-2-4a16.2 16.2 0 0 0-2.2-3.2 8.8 8.8 0 0 0-2.8-2.1 8.4 8.4 0 0 0-3.6-.7 7 7 0 0 0-2.4.4 6.2 6.2 0 0 0-2.1 1.3 6.4 6.4 0 0 0-1.5 2.1 6.9 6.9 0 0 0-.6 2.9 4.5 4.5 0 0 0 1.5 3.8 10.4 10.4 0 0 0 3.8 1.7l3.5.8 3.2.8a10.7 10.7 0 0 1 5.5 3.3 8.9 8.9 0 0 1 2.3 6.2 10 10 0 0 1-1 5.2z"/></svg>