<svg xmlns="http://www.w3.org/2000/svg" viewBox="0 0 333.8 128.8">
  <defs>
    <style>
      .a {
        fill: #231f20;
      }
    </style>
  </defs>
  <title>logo</title>
  <path class="a" d="M565.3,447.3l-1.5,1.1-0.6.7-1,1.4a19.5,19.5,0,0,0-1.2,2.3q-0.6,1.4-1.4,3.5l-2.7,7.8-3.1,8.8-3.1,9.1-3,8.7-3,6.9H544l-3.6-9.9-3.2-9.1-3-8.5q-1.4-4.1-3-8.2l-2.4,6.9-2.6,7.4-2.6,7.4-2.5,7-3.2,7.1H517l-4.2-11.1L509,476.4l-3.6-9.4-3.5-9.1-0.9-2.4-0.7-1.9-0.7-1.7-0.8-1.7-0.6-1.1a5.4,5.4,0,0,0-1.1-1.3,7.6,7.6,0,0,0-1.7-1.1,6.9,6.9,0,0,0-2.6-.5v-0.8h20.3v0.7h-1.2l-1.8.5a4.4,4.4,0,0,0-1.6,1.1,2.7,2.7,0,0,0-.7,1.9,13.7,13.7,0,0,0,.8,3q0.8,2.3,2,5.7l2.7,7.3,3,7.8L519,481l2.1,5.5,1.1-3,2.2-6,2.9-8.2q1.6-4.6,3.2-9.5l-1.9-5.1q-0.9-2.2-1.9-4.3l-0.8-1.2a5.9,5.9,0,0,0-1.3-1.3,7.1,7.1,0,0,0-2.1-1,11.2,11.2,0,0,0-3-.5v-0.8H542v0.7l-1.5.2-2.2.5a6.9,6.9,0,0,0-2,1.1,2.2,2.2,0,0,0-.9,1.8,17.5,17.5,0,0,0,.8,2.9l2,6,2.7,7.7,2.9,8,2.5,6.9,1.6,4.4,0.8-2.1,1.4-4,1.8-5.2,1.9-5.9,1.9-6,1.8-5.6a28.2,28.2,0,0,0,1.2-4.8q0.1-1.5.1-2.2a2.5,2.5,0,0,0-.6-1.8,5.6,5.6,0,0,0-1.6-1.2l-2-.7-1.9-.3v-0.7h15.8v0.7A7.3,7.3,0,0,0,565.3,447.3Z" transform="translate(-492.8 -445.1)"/>
  <path class="a" d="M594,493a8.9,8.9,0,0,1-1.5,2.3,6.2,6.2,0,0,1-2.2,1.6,7.3,7.3,0,0,1-7.1-.9q-1.9-1.4-1.9-5h-0.1a17.7,17.7,0,0,1-1.5,2.1,14.2,14.2,0,0,1-2.3,2.2,11.7,11.7,0,0,1-3,1.6,10,10,0,0,1-3.6.6,8.9,8.9,0,0,1-2.3-.3,5.5,5.5,0,0,1-2.2-1.2,6.2,6.2,0,0,1-1.6-2.1,7.4,7.4,0,0,1-.6-3.2,5.9,5.9,0,0,1,1.6-3.9,18,18,0,0,1,4-3.4l4.2-2.6,3.2-1.8,2.4-1.3,1.8-1v-7.4l-0.3-.7a3.8,3.8,0,0,0-.9-1.1,5.9,5.9,0,0,0-1.7-1,7.1,7.1,0,0,0-2.8-.5,6.8,6.8,0,0,0-2.3.4,8.1,8.1,0,0,0-2,1,7,7,0,0,0-1.4,1.2,1.8,1.8,0,0,0-.5,1v3.2a2.3,2.3,0,0,1-1,1.8,3.7,3.7,0,0,1-2.3.8,2.7,2.7,0,0,1-2-.8,2.6,2.6,0,0,1-.8-1.9,3,3,0,0,1,.4-1.6,5.6,5.6,0,0,1,1.1-1.3l1.4-1,1.3-.8,3.8-2.1,3.7-1.7,3.2-1.2a9,9,0,0,1,2.4-.4,6.9,6.9,0,0,1,3.5,1,5.9,5.9,0,0,1,2.4,2.4,4.4,4.4,0,0,1,.4,1.8q0.1,1.3.1,2.5t0,4.7q0,2.1,0,4t0,4q0,2.1,0,4.5t1.1,4.3a3.6,3.6,0,0,0,2.6,1,3.7,3.7,0,0,0,2.4-.7,3.4,3.4,0,0,0,1.1-1.8h0.4A7.5,7.5,0,0,1,594,493Zm-12.7-15.2-3.2,2-3.8,2.3a16.8,16.8,0,0,0-3.2,2.7,4.9,4.9,0,0,0-1.3,3.3,5.1,5.1,0,0,0,1.3,3.4,4.2,4.2,0,0,0,3.4,1.5,11.5,11.5,0,0,0,3.3-.4,6.3,6.3,0,0,0,2.7-1.7,2.6,2.6,0,0,0,.9-2V477.8Z" transform="translate(-492.8 -445.1)"/>
  <path class="a" d="M616.6,497.4v-0.8a16.3,16.3,0,0,0,3.1-.5,1.4,1.4,0,0,0,1.2-1.5V476.5a12.7,12.7,0,0,0-1.6-6.7q-1.6-2.6-5.3-2.6a7.2,7.2,0,0,0-4,1,21.6,21.6,0,0,0-3.5,3v23.6a1.9,1.9,0,0,0,.5,1l0.9,0.5,1.2,0.2,1.4,0.2v0.7H596.5v-0.7a9.3,9.3,0,0,0,2.8-.6,1.7,1.7,0,0,0,1.2-1.7V469.6a2.6,2.6,0,0,0-.1-0.9,1.7,1.7,0,0,0-.6-0.6l-1.5-.8-1.7-.8V466l9.4-3.4h0.4v7.8h0.1a25.9,25.9,0,0,1,2-2.6,17,17,0,0,1,2.7-2.6,15,15,0,0,1,3.3-1.9,9.5,9.5,0,0,1,3.7-.8,7.4,7.4,0,0,1,6.4,3.1,13.4,13.4,0,0,1,2.2,8v21.2a1.1,1.1,0,0,0,.5.9l1.1,0.5,1.4,0.3,1.4,0.2v0.6H616.6Z" transform="translate(-492.8 -445.1)"/>
  <path class="a" d="M660.7,497.6h-0.4v-7.2h-0.1a14.6,14.6,0,0,1-4.9,5.3,13.4,13.4,0,0,1-7.1,1.7,13.1,13.1,0,0,1-5.1-1,12.2,12.2,0,0,1-4.4-3.2,16.4,16.4,0,0,1-3.1-5.4,21.7,21.7,0,0,1-1.2-7.4,18.2,18.2,0,0,1,1.3-7,16.9,16.9,0,0,1,9.5-9.4,19.8,19.8,0,0,1,7.5-1.4,22,22,0,0,1,4.1.4l3.5,0.9q-0.1-1.1-.1-3t0-3.8V451l-5.9-2.2v-0.4l11.4-3.2h0.6v46.7l2.2,1,3,1.2v0.5Zm-0.5-27.1a14,14,0,0,0-4-4.8,7.9,7.9,0,0,0-4.5-1.8,8.5,8.5,0,0,0-4.8,1.3,10.5,10.5,0,0,0-3.3,3.5,16.3,16.3,0,0,0-1.9,5,27,27,0,0,0-.6,5.8,22.6,22.6,0,0,0,.7,5.7,15.6,15.6,0,0,0,2.2,4.9,11.5,11.5,0,0,0,3.6,3.4,9.3,9.3,0,0,0,4.9,1.3,7.1,7.1,0,0,0,5.1-2,9.2,9.2,0,0,0,2.7-5.1V470.6Z" transform="translate(-492.8 -445.1)"/>
  <path class="a" d="M703.2,490a13.5,13.5,0,0,1-2.7,3.6,14.4,14.4,0,0,1-4.1,2.7,13,13,0,0,1-5.4,1.1,16.1,16.1,0,0,1-6.7-1.4,14.6,14.6,0,0,1-5.1-3.9,17.7,17.7,0,0,1-3.3-5.8,21.6,21.6,0,0,1-1.2-7.1,18.1,18.1,0,0,1,4.1-11.4,15.5,15.5,0,0,1,4.8-3.9,13.5,13.5,0,0,1,6.3-1.5,19,19,0,0,1,5.3.7,12.3,12.3,0,0,1,4.3,2.2,11.4,11.4,0,0,1,3,3.7,13.5,13.5,0,0,1,1.4,5.3H680.8q0,0.6-.1,1.3t-0.1,1.5a19.4,19.4,0,0,0,.9,5.8,15.2,15.2,0,0,0,2.5,4.9,11.7,11.7,0,0,0,4.2,3.3,13.2,13.2,0,0,0,5.8,1.2,10.9,10.9,0,0,0,6.3-1.8,8.7,8.7,0,0,0,3.6-4.5h0.6A13.3,13.3,0,0,1,703.2,490Zm-8.2-24.3a6.5,6.5,0,0,0-4.9-1.9,6,6,0,0,0-3.6,1.2,13.4,13.4,0,0,0-2.8,2.8,14.1,14.1,0,0,0-1.8,3.2,13.2,13.2,0,0,0-.8,2.5h13.2l1.7-.4,0.8-1.1a3.5,3.5,0,0,0,.3-1.5A6.4,6.4,0,0,0,694.9,465.8Z" transform="translate(-492.8 -445.1)"/>
  <path class="a" d="M731.1,469.1a2.8,2.8,0,0,1-2.2,1,3.6,3.6,0,0,1-1.8-.4l-1.2-.9-1.1-.9a2.8,2.8,0,0,0-1.6-.4,2.8,2.8,0,0,0-1.7.6,7.9,7.9,0,0,0-1.5,1.5,12.2,12.2,0,0,0-1.3,2.1l-1,2.3v20.7a1.7,1.7,0,0,0,.9,1l1.6,0.5,1.9,0.2,1.7,0.2v0.7H707.7v-0.7a9.3,9.3,0,0,0,2.8-.6,1.7,1.7,0,0,0,1.2-1.7V470a2.6,2.6,0,0,0-.1-0.9,1.7,1.7,0,0,0-.6-0.6l-1.5-.9-1.7-.9v-0.4l9.4-3.7h0.4v10h0.1l1.2-2.5a21.7,21.7,0,0,1,2-3.3,12.6,12.6,0,0,1,3-2.9,6.7,6.7,0,0,1,4-1.2,4.5,4.5,0,0,1,3.1,1.1,3.4,3.4,0,0,1,1.3,2.7A3.8,3.8,0,0,1,731.1,469.1Z" transform="translate(-492.8 -445.1)"/>
  <path class="a" d="M733.6,497.4v-0.7l1.7-.2,1.5-.4a3.4,3.4,0,0,0,1.2-.7,1.4,1.4,0,0,0,.5-1.1V469.7a4.2,4.2,0,0,0-.1-1,1.4,1.4,0,0,0-.6-0.8l-1.5-.9-1.9-.8v-0.4l9.7-3.2h0.4v32.2a1.6,1.6,0,0,0,.6,1l1.1,0.5,1.4,0.2,1.5,0.2v0.7H733.6ZM743.9,454a3.9,3.9,0,0,1-6.7-2.8,3.6,3.6,0,0,1,1.1-2.7,4.1,4.1,0,0,1,5.5,0,3.6,3.6,0,0,1,1.1,2.7A3.8,3.8,0,0,1,743.9,454Z" transform="translate(-492.8 -445.1)"/>
  <path class="a" d="M772.8,497.4v-0.8a16.3,16.3,0,0,0,3.1-.5,1.4,1.4,0,0,0,1.2-1.5V476.5a12.7,12.7,0,0,0-1.6-6.7q-1.6-2.6-5.3-2.6a7.2,7.2,0,0,0-4,1,21.6,21.6,0,0,0-3.5,3v23.6a1.9,1.9,0,0,0,.5,1l0.9,0.5,1.2,0.2,1.4,0.2v0.7H752.6v-0.7a9.3,9.3,0,0,0,2.8-.6,1.7,1.7,0,0,0,1.2-1.7V469.6a2.6,2.6,0,0,0-.1-0.9,1.7,1.7,0,0,0-.6-0.6l-1.5-.8-1.7-.8V466l9.4-3.4h0.4v7.8h0.1a25.9,25.9,0,0,1,2-2.6,17,17,0,0,1,2.7-2.6,15,15,0,0,1,3.3-1.9,9.5,9.5,0,0,1,3.7-.8,7.4,7.4,0,0,1,6.4,3.1,13.4,13.4,0,0,1,2.2,8v21.2a1.1,1.1,0,0,0,.5.9l1.1,0.5,1.4,0.3,1.4,0.2v0.6H772.8Z" transform="translate(-492.8 -445.1)"/>
  <path class="a" d="M825.9,468.5a2.4,2.4,0,0,1-1.8.8l-1.3-.4-1.9-.9-2.1-1.1-1.9-1.1-0.3.3q1.1,1.7,1.8,3.1a8,8,0,0,1,.8,3.7q0,5.7-4,8.5t-10.9,2.8h-4.5a7.2,7.2,0,0,0-3.7,1.1,2.8,2.8,0,0,0-1.4,2.4,2.7,2.7,0,0,0,.7,1.9,5,5,0,0,0,1.8,1.2,9.1,9.1,0,0,0,2.4.6h14a12.3,12.3,0,0,1,4.5.8,10.6,10.6,0,0,1,3.5,2.2,9.4,9.4,0,0,1,2.2,3.1,9.9,9.9,0,0,1,.8,3.9,11,11,0,0,1-1.4,5.4,14.5,14.5,0,0,1-3.9,4.5,19.6,19.6,0,0,1-5.9,3.1,24.2,24.2,0,0,1-7.5,1.1q-7.8,0-12.2-2.3t-4.4-6.4a4.8,4.8,0,0,1,.8-2.7,12.4,12.4,0,0,1,2.1-2.3,21.2,21.2,0,0,1,2.8-2.1l3.1-1.9h0a10.6,10.6,0,0,1-5.7-2.1,5.7,5.7,0,0,1-1.3-7,7.9,7.9,0,0,1,1.8-2.2,10.6,10.6,0,0,1,2.7-1.7,11.7,11.7,0,0,1,3.3-.9v-0.2a10.8,10.8,0,0,1-4.9-3.6,9.9,9.9,0,0,1-1.8-6,9.3,9.3,0,0,1,1-4.3,10.7,10.7,0,0,1,2.9-3.5,14.7,14.7,0,0,1,4.4-2.3,17.3,17.3,0,0,1,5.6-.9,21.2,21.2,0,0,1,4.9.5,18.7,18.7,0,0,1,4.4,1.7l1.5,0.4h1.5l1.5-.3,1.3-.6,1.2-.6,1.5-.3a2.6,2.6,0,0,1,2,.9,3,3,0,0,1,.8,2.1A2.7,2.7,0,0,1,825.9,468.5Zm-7.1,32.2a4.8,4.8,0,0,0-2.1-2.1,12.7,12.7,0,0,0-4-1.1,51.3,51.3,0,0,0-6.6-.3h-3.1l-2.6.3a7.8,7.8,0,0,0-4.7,2.7,7.1,7.1,0,0,0-1.3,4.1,6.7,6.7,0,0,0,1.3,4,11.4,11.4,0,0,0,3.1,2.9,14.5,14.5,0,0,0,4,1.8,15.1,15.1,0,0,0,3.9.6l3.7-.2,2.8-.6a11.3,11.3,0,0,0,4.4-3.2,7.9,7.9,0,0,0,1.9-5.3A7.1,7.1,0,0,0,818.8,500.7Zm-6-31.2a9,9,0,0,0-1.5-2.9,7.2,7.2,0,0,0-2.4-2,7.4,7.4,0,0,0-3.4-.8,6.4,6.4,0,0,0-3.2.8,7.4,7.4,0,0,0-2.4,2.2,10.6,10.6,0,0,0-1.5,3.2,13.5,13.5,0,0,0-.5,3.7,10.5,10.5,0,0,0,2.2,6.9,6.7,6.7,0,0,0,5.4,2.6,6.6,6.6,0,0,0,3.4-.9,7.9,7.9,0,0,0,2.5-2.3,10.5,10.5,0,0,0,1.5-3.3,14.5,14.5,0,0,0,.5-3.9A12.1,12.1,0,0,0,812.8,469.5Z" transform="translate(-492.8 -445.1)"/>
  <path class="a" d="M533.6,549.4a14,14,0,0,1-3.9,4.7,16.5,16.5,0,0,1-5.9,2.9,28.9,28.9,0,0,1-7.6.9,36.4,36.4,0,0,1-6-.4,23.8,23.8,0,0,1-4.2-1l-2.5-1.1-1-.5a2.4,2.4,0,0,0-.9.9l-1.3,1.7h-0.6L499.4,543h0.7a22.8,22.8,0,0,0,1.7,3.8,31.2,31.2,0,0,0,2.2,3.5,19.5,19.5,0,0,0,2.5,2.8A12.4,12.4,0,0,0,509,555a20.5,20.5,0,0,0,3.2,1.3,13.5,13.5,0,0,0,12.5-2.3,10,10,0,0,0,3.3-7.9,8.9,8.9,0,0,0-.6-3.5,8.3,8.3,0,0,0-1.8-2.6,10.8,10.8,0,0,0-2.6-1.9l-3.2-1.4-3-1.1-2.4-.8-2.3-.8-2.8-1a15.6,15.6,0,0,1-3.6-2,14.7,14.7,0,0,1-3-3,15,15,0,0,1-2.1-3.7,12,12,0,0,1-.8-4.4,14.7,14.7,0,0,1,1.4-6.7,13.7,13.7,0,0,1,3.8-4.7,16.1,16.1,0,0,1,5.5-2.8,23.8,23.8,0,0,1,6.6-.9,24.6,24.6,0,0,1,5.5.5,22.2,22.2,0,0,1,3.8,1.2l2.2,1.2,0.8,0.5a2.3,2.3,0,0,0,.9-0.9l1.3-1.7h0.8V519h-0.8a29.1,29.1,0,0,0-2.2-4.7,21.3,21.3,0,0,0-3.2-4.2,15.3,15.3,0,0,0-4.1-3,11.3,11.3,0,0,0-5.1-1.2,13.5,13.5,0,0,0-4.2.6,9.8,9.8,0,0,0-3.5,1.9,8.9,8.9,0,0,0-2.3,3.2,10.8,10.8,0,0,0-.8,4.4,8.3,8.3,0,0,0,2.3,6.1,16.3,16.3,0,0,0,6,3.7l2.7,1,2.5,0.8,2.5,0.8,2.6,0.9a16.7,16.7,0,0,1,7.6,5.2A14.7,14.7,0,0,1,533.6,549.4Z" transform="translate(-492.8 -445.1)"/>
  <path class="a" d="M560.6,557.4v-0.8a16.3,16.3,0,0,0,3.1-.5,1.4,1.4,0,0,0,1.2-1.5V536.5a12.7,12.7,0,0,0-1.6-6.7q-1.6-2.6-5.3-2.6a7.2,7.2,0,0,0-4,1,21.6,21.6,0,0,0-3.5,3v23.6a1.9,1.9,0,0,0,.5,1l0.9,0.5,1.2,0.2,1.4,0.2v0.7H540.4v-0.7a9.3,9.3,0,0,0,2.8-.6,1.7,1.7,0,0,0,1.2-1.7V529.6a2.6,2.6,0,0,0-.1-0.9,1.7,1.7,0,0,0-.6-0.6l-1.5-.8-1.7-.8V526l9.4-3.4h0.4v7.8h0.1a25.9,25.9,0,0,1,2-2.6,17,17,0,0,1,2.7-2.6,15,15,0,0,1,3.3-1.9,9.5,9.5,0,0,1,3.7-.8,7.4,7.4,0,0,1,6.4,3.1,13.4,13.4,0,0,1,2.2,8v21.2a1.1,1.1,0,0,0,.5.9l1.1,0.5,1.4,0.3,1.4,0.2v0.6H560.6Z" transform="translate(-492.8 -445.1)"/>
  <path class="a" d="M577.2,557.4v-0.7l1.7-.2,1.5-.4a3.4,3.4,0,0,0,1.2-.7,1.4,1.4,0,0,0,.5-1.1V529.7a4.2,4.2,0,0,0-.1-1,1.4,1.4,0,0,0-.6-0.8l-1.5-.9-1.9-.8v-0.4l9.7-3.2h0.4v32.2a1.6,1.6,0,0,0,.6,1l1.1,0.5,1.4,0.2,1.5,0.2v0.7H577.2ZM587.6,514a3.9,3.9,0,0,1-6.7-2.8,3.6,3.6,0,0,1,1.1-2.7,4.1,4.1,0,0,1,5.5,0,3.6,3.6,0,0,1,1.1,2.7A3.8,3.8,0,0,1,587.6,514Z" transform="translate(-492.8 -445.1)"/>
  <path class="a" d="M629.8,545.8a17,17,0,0,1-4,5.9,18.3,18.3,0,0,1-6.3,3.9,23.7,23.7,0,0,1-8.4,1.4h-2.5l-2.6-.4q0,1,0,3v4.1q0,2.2,0,4.2v3.4a1.4,1.4,0,0,0,.8,1l1.5,0.5,1.9,0.3H612V574H594.2v-0.8l1.7-.3,1.9-.5,1.5-.7a1.2,1.2,0,0,0,.6-1V530.8a2.6,2.6,0,0,0-.1-0.9,1.7,1.7,0,0,0-.6-0.6l-2.1-1-2.3-1v-0.4l10.7-4.2H606v8.1H606l2.2-2.8a18.9,18.9,0,0,1,2.7-2.6,15.6,15.6,0,0,1,3.3-2,9.2,9.2,0,0,1,3.8-.8,11.9,11.9,0,0,1,5.9,1.4,12.4,12.4,0,0,1,4.1,3.6,15.8,15.8,0,0,1,2.4,5,20.9,20.9,0,0,1,.8,5.7A19.7,19.7,0,0,1,629.8,545.8Zm-5.7-10.5a12.1,12.1,0,0,0-2-4.1,9.6,9.6,0,0,0-3.4-2.8,10.4,10.4,0,0,0-4.8-1,7.8,7.8,0,0,0-3.3.7,10.8,10.8,0,0,0-2.5,1.6,7.3,7.3,0,0,0-1.6,1.8,3.3,3.3,0,0,0-.5,1.4q0,1.4,0,3.1t0,2.8v4.6q0,1.7.1,3.3a25.9,25.9,0,0,0,.5,3.1,8.9,8.9,0,0,0,1.2,3,6.4,6.4,0,0,0,2.4,2.2,8,8,0,0,0,3.9.8,7.8,7.8,0,0,0,4-1.2,11.9,11.9,0,0,0,3.4-3.2,16.3,16.3,0,0,0,2.4-4.8,20,20,0,0,0,.9-6.1A19.5,19.5,0,0,0,624.1,535.3Z" transform="translate(-492.8 -445.1)"/>
  <path class="a" d="M668.3,545.8a17,17,0,0,1-4,5.9,18.3,18.3,0,0,1-6.3,3.9,23.7,23.7,0,0,1-8.4,1.4H647l-2.6-.4q0,1,0,3v4.1q0,2.2,0,4.2v3.4a1.4,1.4,0,0,0,.8,1l1.5,0.5,1.9,0.3h1.7V574H632.7v-0.8l1.7-.3,1.9-.5,1.5-.7a1.2,1.2,0,0,0,.6-1V530.8a2.6,2.6,0,0,0-.1-0.9,1.7,1.7,0,0,0-.6-0.6l-2.1-1-2.3-1v-0.4l10.7-4.2h0.4v8.1h0.1l2.2-2.8a18.9,18.9,0,0,1,2.7-2.6,15.6,15.6,0,0,1,3.3-2,9.2,9.2,0,0,1,3.8-.8,11.9,11.9,0,0,1,5.9,1.4,12.4,12.4,0,0,1,4.1,3.6,15.8,15.8,0,0,1,2.4,5,20.9,20.9,0,0,1,.8,5.7A19.7,19.7,0,0,1,668.3,545.8Zm-5.7-10.5a12.1,12.1,0,0,0-2-4.1,9.6,9.6,0,0,0-3.4-2.8,10.4,10.4,0,0,0-4.8-1,7.8,7.8,0,0,0-3.3.7,10.8,10.8,0,0,0-2.5,1.6,7.3,7.3,0,0,0-1.6,1.8,3.3,3.3,0,0,0-.5,1.4q0,1.4,0,3.1t0,2.8v4.6q0,1.7.1,3.3a25.9,25.9,0,0,0,.5,3.1,8.9,8.9,0,0,0,1.2,3,6.4,6.4,0,0,0,2.4,2.2,8,8,0,0,0,3.9.8,7.8,7.8,0,0,0,4-1.2,11.9,11.9,0,0,0,3.4-3.2,16.3,16.3,0,0,0,2.4-4.8,20,20,0,0,0,.9-6.1A19.5,19.5,0,0,0,662.6,535.3Z" transform="translate(-492.8 -445.1)"/>
  <path class="a" d="M701,550a13.5,13.5,0,0,1-2.7,3.6,14.4,14.4,0,0,1-4.1,2.7,13,13,0,0,1-5.4,1.1,16.1,16.1,0,0,1-6.7-1.4,14.6,14.6,0,0,1-5.1-3.9,17.7,17.7,0,0,1-3.3-5.8,21.6,21.6,0,0,1-1.2-7.1,18.1,18.1,0,0,1,4.1-11.4,15.5,15.5,0,0,1,4.8-3.9,13.5,13.5,0,0,1,6.3-1.5,19,19,0,0,1,5.3.7,12.3,12.3,0,0,1,4.3,2.2,11.4,11.4,0,0,1,3,3.7,13.5,13.5,0,0,1,1.4,5.3H678.6q0,0.6-.1,1.3t-0.1,1.5a19.4,19.4,0,0,0,.9,5.8,15.2,15.2,0,0,0,2.5,4.9,11.7,11.7,0,0,0,4.2,3.3,13.2,13.2,0,0,0,5.8,1.2,10.9,10.9,0,0,0,6.3-1.8,8.7,8.7,0,0,0,3.6-4.5h0.6A13.3,13.3,0,0,1,701,550Zm-8.2-24.3a6.5,6.5,0,0,0-4.9-1.9,6,6,0,0,0-3.6,1.2,13.4,13.4,0,0,0-2.8,2.8,14.1,14.1,0,0,0-1.8,3.2,13.2,13.2,0,0,0-.8,2.5h13.2l1.7-.4,0.8-1.1a3.5,3.5,0,0,0,.3-1.5A6.4,6.4,0,0,0,692.8,525.8Z" transform="translate(-492.8 -445.1)"/>
  <path class="a" d="M725.4,527.7H714.5v18.9q0,3.7,1.6,5.3a5.4,5.4,0,0,0,4.1,1.7,7.7,7.7,0,0,0,3.5-.7,6.4,6.4,0,0,0,2.4-2.1l0.4,0.2a13.9,13.9,0,0,1-1.2,2.3,8.5,8.5,0,0,1-2,2.2,9.5,9.5,0,0,1-3,1.5,13.2,13.2,0,0,1-4,.5,9,9,0,0,1-2.9-.5,7.4,7.4,0,0,1-2.5-1.4,8.2,8.2,0,0,1-1.7-2,4.3,4.3,0,0,1-.7-2.3q0-6.8.1-12.9t0.1-10.8h-5.3V527l10.4-9.9h0.6v6.3h13.3Z" transform="translate(-492.8 -445.1)"/>
  <path class="a" d="M751.2,551.8a9.6,9.6,0,0,1-3,3.3,12.6,12.6,0,0,1-4.3,1.9,21.8,21.8,0,0,1-5.1.6,29.6,29.6,0,0,1-6-.6,24.3,24.3,0,0,1-5.2-1.7v-9.5h0.6a37.9,37.9,0,0,0,1.4,3.6,18.5,18.5,0,0,0,2.1,3.5,10.4,10.4,0,0,0,2.9,2.7,7.7,7.7,0,0,0,4.1,1,7.5,7.5,0,0,0,5.5-2q2-2,2-6.1a5.2,5.2,0,0,0-1.4-3.7,7.1,7.1,0,0,0-3.8-2l-3.7-.8-3.2-.9a8.9,8.9,0,0,1-4.4-3.2,9.1,9.1,0,0,1-1.7-5.5,8.6,8.6,0,0,1,.9-4,9.8,9.8,0,0,1,2.5-3.1,11.3,11.3,0,0,1,3.7-2,14.2,14.2,0,0,1,4.5-.7,23.5,23.5,0,0,1,5.3.5,34.8,34.8,0,0,1,4.4,1.3l0.9,8.9h-0.6q-1-2.2-2-4a16.2,16.2,0,0,0-2.2-3.2,8.8,8.8,0,0,0-2.8-2.1,8.4,8.4,0,0,0-3.6-.7,7,7,0,0,0-2.4.4,6.2,6.2,0,0,0-2.1,1.3,6.4,6.4,0,0,0-1.5,2.1,6.9,6.9,0,0,0-.6,2.9,4.5,4.5,0,0,0,1.5,3.8,10.4,10.4,0,0,0,3.8,1.7l3.5,0.8,3.2,0.8a10.7,10.7,0,0,1,5.5,3.3,8.9,8.9,0,0,1,2.3,6.2A10,10,0,0,1,751.2,551.8Z" transform="translate(-492.8 -445.1)"/>
</svg>
